<svg xmlns="http://www.w3.org/2000/svg" xmlns:xlink="http://www.w3.org/1999/xlink" width="2500" zoomAndPan="magnify" viewBox="0 0 1874.88 1874.999927" height="2500" preserveAspectRatio="xMidYMid meet" version="1.0"><defs><filter x="0%" y="0%" width="100%" height="100%" id="61b867812c"><feColorMatrix values="0 0 0 0 1 0 0 0 0 1 0 0 0 0 1 0 0 0 1 0" color-interpolation-filters="sRGB"/></filter><clipPath id="d6756a3e0c"><path d="M 0 0.0585938 L 1874.761719 0.0585938 L 1874.761719 1874.9375 L 0 1874.9375 Z M 0 0.0585938 " clip-rule="nonzero"/></clipPath><clipPath id="5b838284f5"><path d="M 248 750 L 1014 750 L 1014 1337 L 248 1337 Z M 248 750 " clip-rule="nonzero"/></clipPath><clipPath id="3640b3ff20"><path d="M 861.480469 750.773438 L 1013.390625 1124.234375 L 337.949219 1398.980469 L 186.039062 1025.519531 Z M 861.480469 750.773438 " clip-rule="nonzero"/></clipPath><clipPath id="a1d4e80d20"><path d="M 248.929688 1145.101562 C 250.207031 1166.894531 254.789062 1190.398438 263.480469 1211.761719 C 272.167969 1233.128906 284.195312 1252.195312 298.410156 1268.492188 C 298.777344 1268.8125 298.941406 1269.214844 299.308594 1269.535156 C 354.292969 1330.085938 444.382812 1354.511719 529.925781 1320.890625 L 1013.390625 1124.234375 L 861.480469 750.773438 L 378.371094 947.285156 C 292.882812 983.234375 245.097656 1062.804688 248.929688 1145.101562 Z M 248.929688 1145.101562 " clip-rule="nonzero"/></clipPath><clipPath id="59a6c27b77"><path d="M 861 538 L 1627 538 L 1627 1125 L 861 1125 Z M 861 538 " clip-rule="nonzero"/></clipPath><clipPath id="6e0295573b"><path d="M 1013.390625 1124.222656 L 861.476562 750.761719 L 1536.917969 476.015625 L 1688.828125 849.476562 Z M 1013.390625 1124.222656 " clip-rule="nonzero"/></clipPath><clipPath id="e61e92208c"><path d="M 1625.9375 729.894531 C 1624.660156 708.101562 1620.078125 684.59375 1611.390625 663.230469 C 1602.699219 641.867188 1590.675781 622.800781 1576.457031 606.503906 C 1576.089844 606.183594 1575.925781 605.78125 1575.558594 605.460938 C 1520.574219 544.910156 1430.484375 520.480469 1344.941406 554.105469 L 861.476562 750.761719 L 1013.390625 1124.222656 L 1496.496094 927.710938 C 1581.984375 891.761719 1629.769531 812.191406 1625.9375 729.894531 Z M 1625.9375 729.894531 " clip-rule="nonzero"/></clipPath><clipPath id="d9538590a4"><path d="M 750 861 L 1337 861 L 1337 1627 L 750 1627 Z M 750 861 " clip-rule="nonzero"/></clipPath><clipPath id="8bec681056"><path d="M 750.710938 1013.453125 L 1124.171875 861.542969 L 1398.917969 1536.980469 L 1025.457031 1688.894531 Z M 750.710938 1013.453125 " clip-rule="nonzero"/></clipPath><clipPath id="bd795f2bd8"><path d="M 1145.035156 1626 C 1166.832031 1624.726562 1190.335938 1620.144531 1211.699219 1611.453125 C 1233.0625 1602.761719 1252.132812 1590.738281 1268.429688 1576.519531 C 1268.75 1576.152344 1269.152344 1575.988281 1269.472656 1575.621094 C 1330.023438 1520.636719 1354.449219 1430.550781 1320.828125 1345.007812 L 1124.171875 861.542969 L 750.710938 1013.453125 L 947.222656 1496.558594 C 983.167969 1582.046875 1062.738281 1629.835938 1145.035156 1626 Z M 1145.035156 1626 " clip-rule="nonzero"/></clipPath><clipPath id="c6755c82a0"><path d="M 538 248 L 1125 248 L 1125 1014 L 538 1014 Z M 538 248 " clip-rule="nonzero"/></clipPath><clipPath id="0ada5518fa"><path d="M 1124.160156 861.542969 L 750.699219 1013.453125 L 475.953125 338.011719 L 849.414062 186.101562 Z M 1124.160156 861.542969 " clip-rule="nonzero"/></clipPath><clipPath id="72e9166f22"><path d="M 729.832031 248.992188 C 708.035156 250.269531 684.53125 254.851562 663.167969 263.542969 C 641.804688 272.234375 622.738281 284.257812 606.441406 298.476562 C 606.121094 298.84375 605.71875 299.007812 605.398438 299.375 C 544.84375 354.355469 520.417969 444.445312 554.039062 529.988281 L 750.699219 1013.453125 L 1124.160156 861.542969 L 927.648438 378.4375 C 891.699219 292.949219 812.128906 245.160156 729.832031 248.992188 Z M 729.832031 248.992188 " clip-rule="nonzero"/></clipPath><clipPath id="b453bb52f4"><path d="M 532 859 L 1124 859 L 1124 1624 L 532 1624 Z M 532 859 " clip-rule="nonzero"/></clipPath><clipPath id="e849b0b26f"><path d="M 751.691406 859.171875 L 1123.1875 1015.832031 L 839.851562 1687.714844 L 468.359375 1531.054688 Z M 751.691406 859.171875 " clip-rule="nonzero"/></clipPath><clipPath id="a0e3d30335"><path d="M 597.386719 1571.140625 C 613.699219 1585.648438 633.558594 1599.03125 654.8125 1607.992188 C 676.0625 1616.953125 698.046875 1621.933594 719.625 1623.402344 C 720.113281 1623.371094 720.511719 1623.539062 721 1623.507812 C 802.695312 1627.441406 883.667969 1581.011719 920.382812 1496.75 L 1123.1875 1015.832031 L 751.691406 859.171875 L 549.039062 1339.734375 C 514.007812 1425.601562 536.484375 1515.660156 597.386719 1571.140625 Z M 597.386719 1571.140625 " clip-rule="nonzero"/></clipPath><clipPath id="99980e1fa9"><path d="M 751 251 L 1343 251 L 1343 1016 L 751 1016 Z M 751 251 " clip-rule="nonzero"/></clipPath><clipPath id="8a5192ae02"><path d="M 1123.175781 1015.824219 L 751.683594 859.164062 L 1035.015625 187.28125 L 1406.511719 343.941406 Z M 1123.175781 1015.824219 " clip-rule="nonzero"/></clipPath><clipPath id="5b53ac71bb"><path d="M 1277.484375 303.855469 C 1261.167969 289.347656 1241.308594 275.964844 1220.058594 267.003906 C 1198.804688 258.042969 1176.820312 253.0625 1155.242188 251.59375 C 1154.757812 251.625 1154.355469 251.457031 1153.871094 251.488281 C 1072.175781 247.554688 991.199219 293.984375 954.484375 378.246094 L 751.683594 859.164062 L 1123.175781 1015.824219 L 1325.832031 535.261719 C 1360.859375 449.394531 1338.386719 359.335938 1277.484375 303.855469 Z M 1277.484375 303.855469 " clip-rule="nonzero"/></clipPath><clipPath id="d8ce0cc401"><path d="M 859 751 L 1624 751 L 1624 1343 L 859 1343 Z M 859 751 " clip-rule="nonzero"/></clipPath><clipPath id="9c9d99cf05"><path d="M 859.109375 1123.242188 L 1015.769531 751.746094 L 1687.652344 1035.078125 L 1530.992188 1406.574219 Z M 859.109375 1123.242188 " clip-rule="nonzero"/></clipPath><clipPath id="6c26ebcc3b"><path d="M 1571.078125 1277.546875 C 1585.585938 1261.230469 1598.964844 1241.371094 1607.925781 1220.121094 C 1616.890625 1198.871094 1621.871094 1176.882812 1623.339844 1155.308594 C 1623.308594 1154.820312 1623.476562 1154.421875 1623.441406 1153.933594 C 1627.378906 1072.238281 1580.949219 991.261719 1496.6875 954.550781 L 1015.769531 751.746094 L 859.109375 1123.242188 L 1339.671875 1325.894531 C 1425.539062 1360.925781 1515.59375 1338.449219 1571.078125 1277.546875 Z M 1571.078125 1277.546875 " clip-rule="nonzero"/></clipPath><clipPath id="c930f9576e"><path d="M 251 532 L 1016 532 L 1016 1124 L 251 1124 Z M 251 532 " clip-rule="nonzero"/></clipPath><clipPath id="ded1eefa28"><path d="M 1015.757812 751.753906 L 859.101562 1123.25 L 187.21875 839.917969 L 343.875 468.421875 Z M 1015.757812 751.753906 " clip-rule="nonzero"/></clipPath><clipPath id="e09156bcde"><path d="M 303.792969 597.449219 C 289.285156 613.761719 275.902344 633.625 266.941406 654.875 C 257.980469 676.125 253 698.113281 251.527344 719.6875 C 251.5625 720.175781 251.394531 720.574219 251.425781 721.0625 C 247.488281 802.757812 293.917969 883.730469 378.183594 920.445312 L 859.101562 1123.25 L 1015.757812 751.753906 L 535.199219 549.101562 C 449.328125 514.070312 359.273438 536.546875 303.792969 597.449219 Z M 303.792969 597.449219 " clip-rule="nonzero"/></clipPath><clipPath id="d68ff5ec3d"><path d="M 730 209 L 1140 209 L 1140 940 L 730 940 Z M 730 209 " clip-rule="nonzero"/></clipPath><clipPath id="336ce91a32"><path d="M 1139.003906 935.351562 L 735.851562 939.640625 L 728.09375 210.5 L 1131.246094 206.210938 Z M 1139.003906 935.351562 " clip-rule="nonzero"/></clipPath><clipPath id="b0a870707a"><path d="M 996.929688 220.839844 C 976.1875 214.03125 952.640625 209.671875 929.578125 209.914062 C 906.515625 210.160156 884.367188 214.351562 863.988281 221.597656 C 863.554688 221.820312 863.121094 221.828125 862.6875 222.050781 C 786.1875 250.984375 730.410156 325.824219 730.296875 417.738281 L 735.851562 939.640625 L 1139.003906 935.351562 L 1133.457031 413.835938 C 1131.382812 321.121094 1074.894531 247.472656 996.929688 220.839844 Z M 996.929688 220.839844 " clip-rule="nonzero"/></clipPath><clipPath id="48147fe6be"><path d="M 735 935 L 1145 935 L 1145 1666 L 735 1666 Z M 735 935 " clip-rule="nonzero"/></clipPath><clipPath id="e2528de7b7"><path d="M 735.863281 939.644531 L 1139.015625 935.355469 L 1146.773438 1664.496094 L 743.621094 1668.785156 Z M 735.863281 939.644531 " clip-rule="nonzero"/></clipPath><clipPath id="2f4c5fb6ee"><path d="M 877.9375 1654.15625 C 898.683594 1660.964844 922.230469 1665.324219 945.289062 1665.082031 C 968.351562 1664.835938 990.503906 1660.644531 1010.878906 1653.398438 C 1011.3125 1653.175781 1011.746094 1653.167969 1012.179688 1652.945312 C 1088.683594 1624.011719 1144.460938 1549.167969 1144.570312 1457.257812 L 1139.015625 935.355469 L 735.863281 939.644531 L 741.414062 1461.160156 C 743.488281 1553.875 799.976562 1627.523438 877.9375 1654.15625 Z M 877.9375 1654.15625 " clip-rule="nonzero"/></clipPath><clipPath id="b51e96496e"><path d="M 209 735 L 940 735 L 940 1145 L 209 1145 Z M 209 735 " clip-rule="nonzero"/></clipPath><clipPath id="0b741c7a63"><path d="M 935.289062 735.925781 L 939.578125 1139.078125 L 210.4375 1146.839844 L 206.148438 743.6875 Z M 935.289062 735.925781 " clip-rule="nonzero"/></clipPath><clipPath id="a42d499eca"><path d="M 220.777344 878.003906 C 213.96875 898.746094 209.605469 922.292969 209.851562 945.355469 C 210.097656 968.417969 214.289062 990.566406 221.535156 1010.941406 C 221.757812 1011.375 221.761719 1011.8125 221.988281 1012.242188 C 250.917969 1088.746094 325.761719 1144.523438 417.675781 1144.632812 L 939.578125 1139.078125 L 935.289062 735.925781 L 413.773438 741.476562 C 321.058594 743.550781 247.40625 800.039062 220.777344 878.003906 Z M 220.777344 878.003906 " clip-rule="nonzero"/></clipPath><clipPath id="c33b0f50ba"><path d="M 935 730 L 1666 730 L 1666 1140 L 935 1140 Z M 935 730 " clip-rule="nonzero"/></clipPath><clipPath id="b68bc3ef61"><path d="M 939.582031 1139.066406 L 935.292969 735.914062 L 1664.429688 728.15625 L 1668.722656 1131.308594 Z M 939.582031 1139.066406 " clip-rule="nonzero"/></clipPath><clipPath id="42e8746ba9"><path d="M 1654.089844 996.992188 C 1660.898438 976.25 1665.261719 952.703125 1665.015625 929.640625 C 1664.769531 906.578125 1660.582031 884.429688 1653.335938 864.050781 C 1653.109375 863.621094 1653.105469 863.183594 1652.882812 862.75 C 1623.949219 786.25 1549.105469 730.472656 1457.191406 730.363281 L 935.292969 735.914062 L 939.582031 1139.066406 L 1461.09375 1133.519531 C 1553.8125 1131.445312 1627.460938 1074.957031 1654.089844 996.992188 Z M 1654.089844 996.992188 " clip-rule="nonzero"/></clipPath><clipPath id="c516dd1275"><path d="M 360 368 L 1079 368 L 1079 1082 L 360 1082 Z M 360 368 " clip-rule="nonzero"/></clipPath><clipPath id="f5fa2a80a1"><path d="M 1078.449219 793.449219 L 796.410156 1081.554688 L 275.34375 571.460938 L 557.382812 283.355469 Z M 1078.449219 793.449219 " clip-rule="nonzero"/></clipPath><clipPath id="2f2f002dfe"><path d="M 472.75 388.675781 C 453.269531 398.527344 433.535156 412.09375 417.402344 428.574219 C 401.265625 445.054688 388.566406 463.679688 379.28125 483.214844 C 379.136719 483.679688 378.832031 483.988281 378.683594 484.453125 C 345.046875 559.007812 358.527344 651.371094 423.441406 716.441406 L 796.410156 1081.554688 L 1078.449219 793.449219 L 705.757812 428.605469 C 638.730469 364.511719 546.710938 352.375 472.75 388.675781 Z M 472.75 388.675781 " clip-rule="nonzero"/></clipPath><clipPath id="61c38efe5a"><path d="M 796 793 L 1514 793 L 1514 1507 L 796 1507 Z M 796 793 " clip-rule="nonzero"/></clipPath><clipPath id="3dda1fdded"><path d="M 796.421875 1081.546875 L 1078.460938 793.441406 L 1599.523438 1303.535156 L 1317.484375 1591.640625 Z M 796.421875 1081.546875 " clip-rule="nonzero"/></clipPath><clipPath id="096fe8fe38"><path d="M 1402.117188 1486.320312 C 1421.597656 1476.464844 1441.335938 1462.902344 1457.46875 1446.421875 C 1473.601562 1429.9375 1486.300781 1411.3125 1495.585938 1391.78125 C 1495.734375 1391.316406 1496.039062 1391.007812 1496.183594 1390.542969 C 1529.820312 1315.988281 1516.339844 1223.625 1451.425781 1158.554688 L 1078.460938 793.441406 L 796.421875 1081.546875 L 1169.109375 1446.390625 C 1236.136719 1510.484375 1328.160156 1522.617188 1402.117188 1486.320312 Z M 1402.117188 1486.320312 " clip-rule="nonzero"/></clipPath><clipPath id="e029a65cfe"><path d="M 368 796 L 1082 796 L 1082 1515 L 368 1515 Z M 368 796 " clip-rule="nonzero"/></clipPath><clipPath id="664f86ca15"><path d="M 793.382812 796.484375 L 1081.488281 1078.523438 L 571.394531 1599.589844 L 283.289062 1317.550781 Z M 793.382812 796.484375 " clip-rule="nonzero"/></clipPath><clipPath id="899121c97b"><path d="M 388.613281 1402.179688 C 398.464844 1421.664062 412.03125 1441.398438 428.511719 1457.53125 C 444.992188 1473.664062 463.617188 1486.363281 483.148438 1495.648438 C 483.613281 1495.796875 483.925781 1496.101562 484.390625 1496.25 C 558.945312 1529.886719 651.304688 1516.402344 716.375 1451.488281 L 1081.488281 1078.523438 L 793.382812 796.484375 L 428.542969 1169.175781 C 364.449219 1236.203125 352.3125 1328.222656 388.613281 1402.179688 Z M 388.613281 1402.179688 " clip-rule="nonzero"/></clipPath><clipPath id="3998462685"><path d="M 793 360 L 1507 360 L 1507 1079 L 793 1079 Z M 793 360 " clip-rule="nonzero"/></clipPath><clipPath id="f35ebc9d30"><path d="M 1081.484375 1078.511719 L 793.378906 796.472656 L 1303.472656 275.40625 L 1591.578125 557.445312 Z M 1081.484375 1078.511719 " clip-rule="nonzero"/></clipPath><clipPath id="ef631ac775"><path d="M 1486.257812 472.816406 C 1476.402344 453.332031 1462.839844 433.597656 1446.355469 417.464844 C 1429.875 401.332031 1411.25 388.628906 1391.71875 379.347656 C 1391.253906 379.199219 1390.941406 378.894531 1390.480469 378.746094 C 1315.925781 345.109375 1223.5625 358.589844 1158.492188 423.507812 L 793.378906 796.472656 L 1081.484375 1078.511719 L 1446.328125 705.820312 C 1510.417969 638.792969 1522.554688 546.773438 1486.257812 472.816406 Z M 1486.257812 472.816406 " clip-rule="nonzero"/></clipPath><clipPath id="ee05c59930"><path d="M 497 497 L 1378 497 L 1378 1378 L 497 1378 Z M 497 497 " clip-rule="nonzero"/></clipPath><clipPath id="eba5c3237c"><path d="M 492.617188 502.042969 L 1372.894531 492.675781 L 1382.261719 1372.957031 L 501.984375 1382.324219 Z M 492.617188 502.042969 " clip-rule="nonzero"/></clipPath><clipPath id="6c8cd4daa6"><path d="M 932.757812 497.359375 C 689.675781 499.945312 494.714844 699.101562 497.300781 942.183594 C 499.886719 1185.265625 699.042969 1380.226562 942.125 1377.640625 C 1185.207031 1375.050781 1380.164062 1175.898438 1377.578125 932.816406 C 1374.992188 689.734375 1175.839844 494.773438 932.757812 497.359375 Z M 932.757812 497.359375 " clip-rule="nonzero"/></clipPath><mask id="af4b315414"><g filter="url(#61b867812c)"><rect x="-187.488" width="2249.856" fill="#000000" y="-187.499993" height="2249.999912" fill-opacity="0.5"/></g></mask><clipPath id="cdeaca4441"><path d="M 0.941406 0.683594 L 475.90625 0.683594 L 475.90625 96.675781 L 0.941406 96.675781 Z M 0.941406 0.683594 " clip-rule="nonzero"/></clipPath><clipPath id="339b9a0445"><rect x="0" width="477" y="0" height="97"/></clipPath></defs><g clip-path="url(#d6756a3e0c)"><path fill="#ffffff" d="M 0 0.0585938 L 1874.878906 0.0585938 L 1874.878906 1874.941406 L 0 1874.941406 Z M 0 0.0585938 " fill-opacity="1" fill-rule="nonzero"/><path fill="#ffffff" d="M 0 0.0585938 L 1874.878906 0.0585938 L 1874.878906 1874.941406 L 0 1874.941406 Z M 0 0.0585938 " fill-opacity="1" fill-rule="nonzero"/></g><g clip-path="url(#5b838284f5)"><g clip-path="url(#3640b3ff20)"><g clip-path="url(#a1d4e80d20)"><path fill="#f9ba15" d="M 861.480469 750.773438 L 1013.390625 1124.234375 L 339.410156 1398.386719 L 187.496094 1024.925781 Z M 861.480469 750.773438 " fill-opacity="1" fill-rule="nonzero"/></g></g></g><g clip-path="url(#59a6c27b77)"><g clip-path="url(#6e0295573b)"><g clip-path="url(#e61e92208c)"><path fill="#f9ba15" d="M 1013.390625 1124.222656 L 861.476562 750.761719 L 1535.460938 476.609375 L 1687.371094 850.070312 Z M 1013.390625 1124.222656 " fill-opacity="1" fill-rule="nonzero"/></g></g></g><g clip-path="url(#d9538590a4)"><g clip-path="url(#8bec681056)"><g clip-path="url(#bd795f2bd8)"><path fill="#63c3a8" d="M 750.710938 1013.453125 L 1124.171875 861.542969 L 1398.324219 1535.523438 L 1024.863281 1687.433594 Z M 750.710938 1013.453125 " fill-opacity="1" fill-rule="nonzero"/></g></g></g><g clip-path="url(#c6755c82a0)"><g clip-path="url(#0ada5518fa)"><g clip-path="url(#72e9166f22)"><path fill="#63c3a8" d="M 1124.160156 861.542969 L 750.699219 1013.453125 L 476.542969 339.472656 L 850.007812 187.5625 Z M 1124.160156 861.542969 " fill-opacity="1" fill-rule="nonzero"/></g></g></g><g clip-path="url(#b453bb52f4)"><g clip-path="url(#e849b0b26f)"><g clip-path="url(#a0e3d30335)"><path fill="#ec227c" d="M 751.691406 859.171875 L 1123.1875 1015.832031 L 840.464844 1686.265625 L 468.96875 1529.605469 Z M 751.691406 859.171875 " fill-opacity="1" fill-rule="nonzero"/></g></g></g><g clip-path="url(#99980e1fa9)"><g clip-path="url(#8a5192ae02)"><g clip-path="url(#5b53ac71bb)"><path fill="#ec227c" d="M 1123.175781 1015.824219 L 751.683594 859.164062 L 1034.402344 188.730469 L 1405.898438 345.390625 Z M 1123.175781 1015.824219 " fill-opacity="1" fill-rule="nonzero"/></g></g></g><g clip-path="url(#d8ce0cc401)"><g clip-path="url(#9c9d99cf05)"><g clip-path="url(#6c26ebcc3b)"><path fill="#f9ba15" d="M 859.109375 1123.242188 L 1015.769531 751.746094 L 1686.199219 1034.46875 L 1529.539062 1405.960938 Z M 859.109375 1123.242188 " fill-opacity="1" fill-rule="nonzero"/></g></g></g><g clip-path="url(#c930f9576e)"><g clip-path="url(#ded1eefa28)"><g clip-path="url(#e09156bcde)"><path fill="#f9ba15" d="M 1015.757812 751.753906 L 859.101562 1123.25 L 188.667969 840.527344 L 345.328125 469.035156 Z M 1015.757812 751.753906 " fill-opacity="1" fill-rule="nonzero"/></g></g></g><g clip-path="url(#d68ff5ec3d)"><g clip-path="url(#336ce91a32)"><g clip-path="url(#b0a870707a)"><path fill="#f9ba15" d="M 1139.003906 935.351562 L 735.851562 939.640625 L 728.109375 212.074219 L 1131.261719 207.785156 Z M 1139.003906 935.351562 " fill-opacity="1" fill-rule="nonzero"/></g></g></g><g clip-path="url(#48147fe6be)"><g clip-path="url(#e2528de7b7)"><g clip-path="url(#2f4c5fb6ee)"><path fill="#f9ba15" d="M 735.863281 939.644531 L 1139.015625 935.355469 L 1146.757812 1662.921875 L 743.605469 1667.210938 Z M 735.863281 939.644531 " fill-opacity="1" fill-rule="nonzero"/></g></g></g><g clip-path="url(#b51e96496e)"><g clip-path="url(#0b741c7a63)"><g clip-path="url(#a42d499eca)"><path fill="#63c3a8" d="M 935.289062 735.925781 L 939.578125 1139.078125 L 212.011719 1146.820312 L 207.722656 743.667969 Z M 935.289062 735.925781 " fill-opacity="1" fill-rule="nonzero"/></g></g></g><g clip-path="url(#c33b0f50ba)"><g clip-path="url(#b68bc3ef61)"><g clip-path="url(#42e8746ba9)"><path fill="#63c3a8" d="M 939.582031 1139.066406 L 935.292969 735.914062 L 1662.855469 728.171875 L 1667.144531 1131.328125 Z M 939.582031 1139.066406 " fill-opacity="1" fill-rule="nonzero"/></g></g></g><g clip-path="url(#c516dd1275)"><g clip-path="url(#f5fa2a80a1)"><g clip-path="url(#2f2f002dfe)"><path fill="#ec227c" d="M 1078.449219 793.449219 L 796.410156 1081.554688 L 276.46875 572.5625 L 558.507812 284.457031 Z M 1078.449219 793.449219 " fill-opacity="1" fill-rule="nonzero"/></g></g></g><g clip-path="url(#61c38efe5a)"><g clip-path="url(#3dda1fdded)"><g clip-path="url(#096fe8fe38)"><path fill="#ec227c" d="M 796.421875 1081.546875 L 1078.460938 793.441406 L 1598.398438 1302.433594 L 1316.359375 1590.539062 Z M 796.421875 1081.546875 " fill-opacity="1" fill-rule="nonzero"/></g></g></g><g clip-path="url(#e029a65cfe)"><g clip-path="url(#664f86ca15)"><g clip-path="url(#899121c97b)"><path fill="#6a53a2" d="M 793.382812 796.484375 L 1081.488281 1078.523438 L 572.496094 1598.464844 L 284.390625 1316.425781 Z M 793.382812 796.484375 " fill-opacity="1" fill-rule="nonzero"/></g></g></g><g clip-path="url(#3998462685)"><g clip-path="url(#f35ebc9d30)"><g clip-path="url(#ef631ac775)"><path fill="#6a53a2" d="M 1081.484375 1078.511719 L 793.378906 796.472656 L 1302.371094 276.53125 L 1590.476562 558.570312 Z M 1081.484375 1078.511719 " fill-opacity="1" fill-rule="nonzero"/></g></g></g><g clip-path="url(#ee05c59930)"><g clip-path="url(#eba5c3237c)"><g clip-path="url(#6c8cd4daa6)"><path fill="#ffffff" d="M 492.617188 502.042969 L 1372.894531 492.675781 L 1382.261719 1372.957031 L 501.984375 1382.324219 Z M 492.617188 502.042969 " fill-opacity="1" fill-rule="nonzero"/></g></g></g><g mask="url(#af4b315414)"><g transform="matrix(1, 0, 0, 1, 699, 889)"><g clip-path="url(#339b9a0445)"><g clip-path="url(#cdeaca4441)"><path fill="#737373" d="M 96.242188 48.484375 C 96.242188 74.800781 74.910156 96.132812 48.589844 96.132812 C 22.273438 96.132812 0.941406 74.800781 0.941406 48.484375 C 0.941406 22.164062 22.273438 0.832031 48.589844 0.832031 C 74.910156 0.832031 96.242188 22.164062 96.242188 48.484375 Z M 238.535156 0.832031 C 212.21875 0.832031 190.882812 22.164062 190.882812 48.484375 C 190.882812 74.800781 212.21875 96.132812 238.535156 96.132812 C 264.851562 96.132812 286.1875 74.800781 286.1875 48.484375 C 286.1875 22.164062 264.851562 0.832031 238.535156 0.832031 Z M 428.277344 0.832031 C 401.957031 0.832031 380.625 22.164062 380.625 48.484375 C 380.625 74.800781 401.957031 96.132812 428.277344 96.132812 C 454.59375 96.132812 475.925781 74.800781 475.925781 48.484375 C 475.925781 22.164062 454.59375 0.832031 428.277344 0.832031 Z M 428.277344 0.832031 " fill-opacity="1" fill-rule="nonzero"/></g></g></g></g></svg>